<?xml version="1.0" encoding="iso-8859-1"?>
<!-- Generator: Adobe Illustrator 19.0.0, SVG Export Plug-In . SVG Version: 6.00 Build 0)  -->
<svg version="1.1" id="Capa_1" xmlns="http://www.w3.org/2000/svg" xmlns:xlink="http://www.w3.org/1999/xlink" x="0px" y="0px"
	 viewBox="0 0 512 512" style="enable-background:new 0 0 512 512;" xml:space="preserve">
<path style="fill:#FFDF48;" d="M507.392,222.567c-5.934,42.431-20.184,82.437-42.348,118.915
	c-20.948,34.465-48.447,64.999-81.735,90.744c-96.831,74.912-224.315,94.138-315.489,69.869c-1.228-0.33-2.435-0.661-3.643-1.011
	c-22.929-6.563-41.863-16.531-56.331-29.635l-5.51-4.994l2.115-34.558l2.209-36.003c12.284-1.269,27.879-2.54,57.517-8.833
	c41.894-8.781,109.163-27.386,167.423-63.791c43.587-27.231,75.215-60.097,94.015-97.699l0.206-0.382
	c4.881-9.143,18.244-36.745,21.299-54.484c3.385-19.627,15.076-49.51,32.762-68.744c5.954-6.48,13.384-11.434,21.722-14.529V0
	h78.082v93.334C509.105,123.527,513.232,180.817,507.392,222.567z"/>
<path style="fill:#FFD400;" d="M507.392,222.567c-5.934,42.431-20.184,82.437-42.348,118.915
	c-20.948,34.465-48.447,64.999-81.735,90.744c-96.831,74.912-224.315,94.138-315.489,69.869c-1.228-0.33-2.435-0.661-3.643-1.011
	c-22.929-6.563-41.863-16.531-56.331-29.635l-5.51-4.994l2.115-34.558C508.021,501.083,443.012,0,443.012,0h36.673v93.334
	C509.105,123.527,513.232,180.817,507.392,222.567z"/>
<path style="fill:#C27B48;" d="M64.177,387.059v114.023c-22.929-6.563-41.863-16.531-56.331-29.635l-5.51-4.994l2.115-34.558
	l2.209-36.002C18.944,394.623,34.538,393.352,64.177,387.059z"/>
<path style="fill:#A66235;" d="M64.177,437.632v63.451c-22.929-6.563-41.863-16.531-56.331-29.635l-5.51-4.994l2.115-34.558
	C25.326,434.763,45.221,436.652,64.177,437.632z"/>
<g>
</g>
<g>
</g>
<g>
</g>
<g>
</g>
<g>
</g>
<g>
</g>
<g>
</g>
<g>
</g>
<g>
</g>
<g>
</g>
<g>
</g>
<g>
</g>
<g>
</g>
<g>
</g>
<g>
</g>
</svg>
