<?xml version="1.0" encoding="iso-8859-1"?>
<!-- Generator: Adobe Illustrator 19.0.0, SVG Export Plug-In . SVG Version: 6.00 Build 0)  -->
<svg version="1.1" id="Capa_1" xmlns="http://www.w3.org/2000/svg" xmlns:xlink="http://www.w3.org/1999/xlink" x="0px" y="0px"
	 viewBox="0 0 512.001 512.001" style="enable-background:new 0 0 512.001 512.001;" xml:space="preserve">
<path style="fill:#3E4A66;" d="M462.688,322.013v-31.135c0-8.466-6.859-15.325-15.325-15.325H411.25
	c-8.466,0-15.325-6.859-15.325-15.325v-41.86c0-8.466-6.859-15.325-15.325-15.325h-7.857c-8.466,0-15.325-6.859-15.325-15.325l0,0
	c0-8.466-6.859-15.325-15.325-15.325h-28.186c-8.466,0-15.325-6.859-15.325-15.325v-39.971c0-8.466-6.859-15.325-15.325-15.325
	H237.92c-2.428-31.108-31.673-54.687-64.68-47.492c-19.023,4.149-34.507,19.174-39.3,38.047
	c-3.831,15.051-1.068,29.237,5.809,40.695c-14.698-2.101-30.649-0.106-53.425,31.647c-4.034,5.623-6.859,12.262-7.053,19.174
	c-0.406,14.239,4.846,27.198,13.621,36.943c-32.071,0.874-57.803,27.074-57.803,59.339c0,14.989,5.597,28.646,14.751,39.106
	c-0.009-0.009-0.009-0.009-0.018-0.018c-23.587,5.341-41.216,26.342-41.216,51.544c0,15.837,6.991,30.023,18.017,39.724
	C13.514,422.02,6.108,439.879,9.374,459.326c3.708,22.104,21.813,39.892,43.979,43.229c19.977,3.01,38.215-5.164,49.496-19.182
	C111.65,500.365,129.376,512,149.847,512c23.111,0,42.708-14.822,49.947-35.46c8.086,5.438,17.761,8.704,28.186,8.96
	c5.667,0.141,11.202-1.836,15.898-5.014c37.094-25.123,39.45-39.283,38.117-52.851c-0.053-0.044-0.088-0.106-0.141-0.159
	c11.149,10.205,26.65,15.731,43.414,13.356c22.281-3.151,40.607-20.886,44.456-43.061c2.242-12.941-0.282-25.185-6.038-35.354
	c0.344-0.221,0.706-0.415,1.05-0.636c8.254,23.552,32.609,39.53,59.922,34.551c20.233-3.69,36.838-19.624,41.534-39.645
	C469.123,344.135,467.429,332.217,462.688,322.013z"/>
<path style="fill:#6C4127;" d="M334.309,141.144c-3.001,20.047-33.227,66.622-53.213,88.373c0.38,0.247,0.777,0.494,1.165,0.733
	c24.567-16.057,72.792-41.269,92.963-41.013c3.143,0.035,6.206,0.486,9.216,1.103c2.295-3.019,3.752-4.961,3.752-4.961
	c70.621-61.793,61.793-176.552,61.793-176.552h-35.31c0,105.931-79.448,114.759-79.448,114.759l-1.377,1.033
	C334.882,130.004,335.138,135.565,334.309,141.144z"/>
<path style="fill:#7383BF;" d="M202.813,123.586c10.487,0,20.233,3.09,28.46,8.342c4.343-7.68,6.85-16.543,6.85-25.997
	c0-29.255-23.711-52.966-52.966-52.966s-52.966,23.711-52.966,52.966c0,18.767,9.781,35.213,24.505,44.623
	C165.79,134.462,183.021,123.586,202.813,123.586z"/>
<path style="fill:#556080;" d="M149.847,176.552c0-9.702,2.657-18.759,7.221-26.571c-0.115,0.194-0.265,0.371-0.371,0.574
	c-6.938-4.431-12.721-10.478-16.958-17.54c-2.472-0.362-4.979-0.6-7.548-0.6c-29.255,0-52.966,23.711-52.966,52.966
	s23.711,52.966,52.966,52.966c16.075,0,30.455-7.194,40.166-18.503C158.754,210.255,149.847,194.454,149.847,176.552z"/>
<path style="fill:#3E4A66;" d="M246.704,206.204c5.729-8.466,9.075-18.662,9.075-29.652c0-29.255-23.711-52.966-52.966-52.966
	s-52.966,23.711-52.966,52.966s23.711,52.966,52.966,52.966c6.294,0,12.306-1.156,17.902-3.169
	C226.956,217.132,236.049,210.035,246.704,206.204z"/>
<path style="fill:#2F3A51;" d="M335.227,264.828c-6.78,0-13.233,1.324-19.191,3.637c-4.087,16.914-16.269,30.632-32.238,36.855
	c-0.971,4.008-1.536,8.174-1.536,12.473c0,29.255,23.711,52.966,52.966,52.966s52.966-23.711,52.966-52.966
	C388.192,288.538,364.481,264.828,335.227,264.828z"/>
<g>
	<path style="fill:#7383BF;" d="M211.64,256c0-4.025,0.486-7.927,1.342-11.697c-9.516-9.137-22.413-14.786-36.652-14.786
		c-29.255,0-52.966,23.711-52.966,52.966s23.711,52.966,52.966,52.966c25.229,0,46.292-17.655,51.624-41.269
		C217.917,284.54,211.64,271.016,211.64,256z"/>
	<path style="fill:#7383BF;" d="M414.675,291.31c-10.929,0-21.071,3.31-29.502,8.978c1.916,5.491,3.019,11.361,3.019,17.505
		c0,18.326-9.313,34.481-23.464,43.988c7.239,20.639,26.836,35.46,49.947,35.46c29.255,0,52.966-23.711,52.966-52.966
		C467.641,315.021,443.93,291.31,414.675,291.31z"/>
	<path style="fill:#7383BF;" d="M176.33,432.552c0-6.144,1.121-12.006,3.054-17.487c-0.088-0.062-0.194-0.106-0.291-0.168
		c-8.377,5.561-18.432,8.828-29.246,8.828c-10.823,0-20.868-3.257-29.255-8.828c-14.283,9.49-23.711,25.706-23.711,44.138
		c0,29.255,23.711,52.966,52.966,52.966c23.111,0,42.708-14.822,49.947-35.46C185.643,467.032,176.33,450.878,176.33,432.552z"/>
</g>
<path style="fill:#2F3A51;" d="M281.996,427.635c-9.348-8.492-15.66-20.277-17.081-33.527c0.168-0.062,0.327-0.15,0.494-0.212
	l-0.009-0.009c-5.738,2.145-11.944,3.354-18.45,3.354c-13.974,0-26.642-5.447-36.105-14.283c-4.061,1.51-7.795,3.619-11.317,6.02
	c-3.849,10.487-10.858,19.438-19.95,25.618c-2.039,5.614-3.249,11.626-3.249,17.955c0,29.255,23.711,52.966,52.966,52.966
	s52.966-23.711,52.966-52.966C282.261,430.892,282.155,429.259,281.996,427.635z"/>
<g>
	<path style="fill:#3E4A66;" d="M282.261,317.793c0-3.999,0.53-7.857,1.377-11.599c-0.203-0.194-0.38-0.406-0.583-0.6
		c-5.756,2.145-11.953,3.372-18.45,3.372c-13.974,0-26.642-5.447-36.105-14.283c-0.282,0.106-0.547,0.274-0.83,0.38
		c-4.105,16.799-16.181,30.393-32.018,36.634c-0.803,3.266-1.289,6.647-1.492,10.108c5.464,8.316,8.651,18.255,8.651,28.954
		c0,0.865-0.088,1.704-0.132,2.56c9.472,14.398,25.75,23.923,44.27,23.923c25.229,0,46.292-17.655,51.624-41.269
		C288.538,346.333,282.261,332.809,282.261,317.793z"/>
	<path style="fill:#3E4A66;" d="M123.365,282.483c0-15.572,6.762-29.537,17.47-39.23c-0.777-1.015-1.483-2.083-2.348-3.037
		c-3.814-0.353-7.521-1.077-11.087-2.119c-13.692-1.227-25.838-7.68-34.525-17.329C60.822,221.66,35.09,247.86,35.09,280.125
		c0,32.83,26.615,59.436,59.436,59.436c17.576,0,33.289-7.706,44.164-19.836C129.226,310.157,123.365,297.013,123.365,282.483z"/>
</g>
<path style="fill:#7383BF;" d="M103.397,338.82c-2.895,0.441-5.844,0.75-8.863,0.75c-17.841,0-33.81-7.901-44.703-20.356
	c-23.596,5.341-41.225,26.342-41.225,51.544c0,29.255,23.711,52.966,52.966,52.966c18.432,0,34.648-9.428,44.138-23.711
	c-5.57-8.386-8.828-18.432-8.828-29.255c0-10.761,3.354-20.665,8.881-29.016C105.065,340.692,104.156,339.818,103.397,338.82z"/>
<path style="fill:#556080;" d="M187.938,334.009c-3.752,0.847-7.601,1.439-11.608,1.439c-14.998,0-28.504-6.259-38.144-16.278
	c0.177,0.177,0.327,0.38,0.503,0.556c-7.918,8.828-18.406,15.263-30.296,18.141c-7.186,9.031-11.511,20.445-11.511,32.892
	c0,29.255,23.711,52.966,52.966,52.966s52.966-23.711,52.966-52.966C202.813,356.476,197.128,343.534,187.938,334.009z"/>
<g>
	<path style="fill:#61B872;" d="M503.392,280.647c0,0-59.392-16.534-84.86-64.742c-8.501-16.093-25.106-26.439-43.299-26.659
		c-21.389-0.274-49.514,4.017-75.317,22.616l-1.854,3.09c11.9,9.71,19.509,24.488,19.509,41.048c0,4.308-0.574,8.474-1.545,12.482
		c0-0.009,0-0.009,0-0.018c5.967-2.313,12.42-3.637,19.2-3.637c23.111,0,42.717,14.83,49.947,35.469v-0.009
		c8.43-5.667,18.573-8.978,29.502-8.978c25.044,0,45.983,17.408,51.5,40.766C504.391,312.294,503.392,280.647,503.392,280.647z"/>
	<path style="fill:#61B872;" d="M314.923,94.137C271.412,61.272,264.606,0,264.606,0s-44.138,0-70.621,52.966c0,0,0,0.309,0,0.794
		c25.044,4.211,44.138,25.935,44.138,52.171c0,9.454-2.507,18.317-6.85,25.997c0,0-0.009,0-0.009-0.009
		c14.724,9.41,24.514,25.865,24.514,44.632c0,10.99-3.346,21.186-9.075,29.652c5.597-2.013,11.608-3.169,17.902-3.169
		c11.776,0,26.518,11.158,35.31,17.655v-8.828c22.493-22.493,31.232-49.567,34.392-70.718
		C337.001,123.145,329.445,105.101,314.923,94.137z"/>
</g>
<path style="fill:#3E4A66;" d="M96.882,459.034c0-12.553,4.44-24.011,11.741-33.086c-3.046-5.897-7.168-11.132-12.111-15.484
	c-9.331,8.227-21.53,13.259-34.94,13.259s-25.618-5.023-34.948-13.241c-11.026,9.71-18.017,23.887-18.017,39.724
	c0,29.255,23.711,52.966,52.966,52.966c16.693,0,31.559-7.733,41.269-19.8C99.053,476.081,96.882,467.818,96.882,459.034z"/>
<circle style="fill:#556080;" cx="264.61" cy="256" r="52.966"/>
<path style="fill:#7383BF;" d="M363.688,362.417c-8.227,5.252-17.973,8.342-28.46,8.342c-14.548,0-27.674-5.906-37.244-15.413
	c0.203,0.203,0.388,0.424,0.591,0.627c-3.999,17.708-16.843,32.062-33.651,38.135c2.842,26.571,25.318,47.272,52.648,47.272
	c29.255,0,52.966-23.711,52.966-52.966C370.537,378.959,368.03,370.097,363.688,362.417z"/>
<g>
</g>
<g>
</g>
<g>
</g>
<g>
</g>
<g>
</g>
<g>
</g>
<g>
</g>
<g>
</g>
<g>
</g>
<g>
</g>
<g>
</g>
<g>
</g>
<g>
</g>
<g>
</g>
<g>
</g>
</svg>
