<?xml version="1.0" encoding="iso-8859-1"?>
<!-- Generator: Adobe Illustrator 19.0.0, SVG Export Plug-In . SVG Version: 6.00 Build 0)  -->
<svg version="1.1" id="Capa_1" xmlns="http://www.w3.org/2000/svg" xmlns:xlink="http://www.w3.org/1999/xlink" x="0px" y="0px"
	 viewBox="0 0 512 512" style="enable-background:new 0 0 512 512;" xml:space="preserve">
<path style="fill:#11A892;" d="M512,120.33v15.38c0,68.38-26.63,132.67-74.98,181.02c-48.35,48.35-112.64,74.98-181.02,74.98
	s-132.67-26.63-181.02-74.98C26.63,268.38,0,204.09,0,135.71v-0.48l0.06-14.94L15,120.33H512z"/>
<path style="fill:#FF475A;" d="M449.58,137.44c0,106.74-86.84,193.58-193.58,193.58S62.42,244.18,62.42,137.44l0.01-0.34v-16.77
	h387.14L449.58,137.44z"/>
<path style="fill:#0F9887;" d="M512,120.33v15.38c0,68.38-26.63,132.67-74.98,181.02c-48.35,48.35-112.64,74.98-181.02,74.98V120.33
	H512z"/>
<path style="fill:#E5104D;" d="M449.58,137.44c0,106.74-86.84,193.58-193.58,193.58V120.33h193.57L449.58,137.44z"/>
<path style="fill:#BDF052;" d="M449.58,137.44c0,106.74-86.84,193.58-193.58,193.58S62.42,244.18,62.42,137.44l0.01-0.34v-16.77h30
	l-0.01,17.17c0.03,90.17,73.4,163.52,163.58,163.52s163.55-73.35,163.58-163.53l-0.01-0.33v-16.83h30L449.58,137.44z"/>
<rect x="241" y="218.77" style="fill:#A66235;" width="30" height="45.57"/>
<g>
	
		<rect x="295.847" y="208.462" transform="matrix(-0.5472 -0.837 0.837 -0.5472 305.9534 612.4374)" style="fill:#805142;" width="45.574" height="29.999"/>
	
		<rect x="338.589" y="158.905" transform="matrix(-0.916 -0.4011 0.4011 -0.916 622.6511 478.1575)" style="fill:#805142;" width="45.574" height="29.999"/>
</g>
<g>
	
		<rect x="178.361" y="200.681" transform="matrix(-0.837 -0.5472 0.5472 -0.837 232.922 516.3185)" style="fill:#A66235;" width="29.999" height="45.574"/>
	
		<rect x="135.625" y="151.121" transform="matrix(-0.4011 -0.916 0.916 -0.4011 51.7386 381.64)" style="fill:#A66235;" width="29.999" height="45.573"/>
</g>
<rect x="256" y="218.77" style="fill:#805142;" width="15" height="45.57"/>
<path style="fill:#92D700;" d="M449.58,137.44c0,106.74-86.84,193.58-193.58,193.58v-30c90.18,0,163.55-73.35,163.58-163.53
	l-0.01-0.33v-16.83h30L449.58,137.44z"/>
<g>
</g>
<g>
</g>
<g>
</g>
<g>
</g>
<g>
</g>
<g>
</g>
<g>
</g>
<g>
</g>
<g>
</g>
<g>
</g>
<g>
</g>
<g>
</g>
<g>
</g>
<g>
</g>
<g>
</g>
</svg>
